<?xml version="1.0" encoding="UTF-8"?>
<svg version="1.1" xmlns="http://www.w3.org/2000/svg" width="500" height="500">
<path d="M0 0 C16.87753564 15.84377989 23.89512262 38.59952501 24.85845947 61.30651855 C24.99919769 67.08969856 24.99184934 72.87154573 24.95581055 78.65600586 C24.93755158 81.67896012 24.93530176 84.7016056 24.93554688 87.72460938 C24.91487566 98.77151195 24.61898322 109.7352127 23.75 120.75 C24.60376221 120.33041016 25.45752441 119.91082031 26.3371582 119.47851562 C51.53621728 107.21414998 80.58640164 105.4333297 107.75 111.75 C108.43400879 111.90033691 109.11801758 112.05067383 109.82275391 112.20556641 C122.86677118 115.16606337 134.14829341 121.23930882 145.75 127.75 C145.75 128.41 145.75 129.07 145.75 129.75 C146.43449219 129.9665625 147.11898438 130.183125 147.82421875 130.40625 C151.61103034 132.14545319 154.42471826 134.54248265 157.5625 137.25 C158.15998047 137.74886719 158.75746094 138.24773437 159.37304688 138.76171875 C160.87507926 140.04230865 162.31808356 141.39146142 163.75 142.75 C163.75 143.41 163.75 144.07 163.75 144.75 C164.41 144.75 165.07 144.75 165.75 144.75 C167.58554388 146.85847605 169.30393136 148.97073575 171 151.1875 C171.49798096 151.83420654 171.99596191 152.48091309 172.5090332 153.1472168 C173.93220609 155.00782418 175.34298456 156.87715911 176.75 158.75 C177.33652344 159.52085937 177.92304688 160.29171875 178.52734375 161.0859375 C201.29743335 193.00190796 206.61049495 239.54025639 200.5 277.5 C199.99372318 280.27102179 199.4023869 283.00997502 198.75 285.75 C198.5948291 286.41821777 198.4396582 287.08643555 198.27978516 287.77490234 C197.24267856 292.14428212 196.03660956 296.44651287 194.75 300.75 C194.46511719 301.76191406 194.18023437 302.77382813 193.88671875 303.81640625 C191.28853491 312.41215983 187.08606739 319.94132452 182.75 327.75 C182.07313609 329.07818578 181.40052268 330.40871612 180.75 331.75 C180.09 331.75 179.43 331.75 178.75 331.75 C178.35941406 332.84634766 178.35941406 332.84634766 177.9609375 333.96484375 C173.58057151 344.03968553 161.98722918 355.72127742 152.75 361.75 C152.09 361.75 151.43 361.75 150.75 361.75 C150.75 362.41 150.75 363.07 150.75 363.75 C124.87377462 383.65478876 91.60324364 391.51041521 59.5625 392.4375 C58.29728516 392.47584961 57.03207031 392.51419922 55.72851562 392.55371094 C5.67512753 393.84138088 -45.15437175 381.95189343 -82.25 346.75 C-90.25 338.63217968 -90.25 338.63217968 -90.25 335.75 C-90.91 335.75 -91.57 335.75 -92.25 335.75 C-93.72895174 333.75863137 -95.06292828 331.78620475 -96.375 329.6875 C-96.77170898 329.0577124 -97.16841797 328.4279248 -97.57714844 327.77905273 C-111.94306044 304.67302044 -119.67407725 278.84919901 -122.25 251.75 C-122.33032974 250.956008 -122.41065948 250.16201599 -122.49342346 249.34396362 C-124.60490006 227.88324601 -124.55911787 206.44443902 -124.51074219 184.90185547 C-124.49940948 179.80082126 -124.50608408 174.69999725 -124.51762486 169.59897041 C-124.58243818 135.78466173 -123.39317048 102.33984188 -119.25 68.75 C-119.13543457 67.77869141 -119.02086914 66.80738281 -118.90283203 65.80664062 C-117.00709494 49.90335993 -113.85452099 34.43491259 -107.25 19.75 C-106.59 19.75 -105.93 19.75 -105.25 19.75 C-105.14558594 19.19699219 -105.04117188 18.64398438 -104.93359375 18.07421875 C-101.3682056 5.95189903 -90.32973601 -2.99789171 -79.75390625 -8.97265625 C-53.97800426 -22.12198535 -21.85140156 -19.62083652 0 0 Z M31.25390625 224.5078125 C24.70891458 234.26580008 23.49322495 246.65340977 25.375 258.125 C27.6010676 266.98445023 31.70634533 274.21944173 39.25 279.5 C44.79121336 282.27060668 50.66842468 282.40565432 56.6875 281.125 C64.20394765 277.7502684 68.88312064 273.35768007 72.55078125 265.921875 C77.13505078 253.79670608 76.58127965 240.53610171 71.41796875 228.6953125 C68.02188574 222.65584034 64.29117568 218.40254865 57.9375 215.4375 C47.08477493 213.09671616 38.25464783 215.63912363 31.25390625 224.5078125 Z " fill="#5681D6" transform="translate(211.25,58.25)"/>
<path d="M0 0 C0.66 0 1.32 0 2 0 C1.67 31.35 1.34 62.7 1 95 C0.34 94.67 -0.32 94.34 -1 94 C-1.02312178 81.89158056 -1.04091424 69.78316633 -1.05181217 57.67472935 C-1.05704136 52.05292038 -1.06413966 46.43112647 -1.07543945 40.80932617 C-1.08626706 35.38881723 -1.09227656 29.9683228 -1.09487724 24.54780388 C-1.09673172 22.47485055 -1.10035277 20.40189806 -1.10573006 18.32895088 C-1.1129388 15.43616107 -1.11399101 12.54343204 -1.11352539 9.65063477 C-1.11712067 8.78461136 -1.12071594 7.91858795 -1.12442017 7.02632141 C-1.11405216 1.11405216 -1.11405216 1.11405216 0 0 Z " fill="#7894C6" transform="translate(88,189)"/>
<path d="M0 0 C0 0.33 0 0.66 0 1 C-2.31 1 -4.62 1 -7 1 C-7 0.34 -7 -0.32 -7 -1 C-14.92 -1.33 -22.84 -1.66 -31 -2 C-31 -2.33 -31 -2.66 -31 -3 C-47.76935732 -3.36053768 -47.76935732 -3.36053768 -64.3828125 -1.4453125 C-67.97676214 -0.83380465 -71.36466815 -0.85743797 -75 -1 C-54.71248987 -12.75346934 -21.04450045 -6.53584706 0 0 Z " fill="#7E99CC" transform="translate(330,173)"/>
<path d="M0 0 C0.33 0 0.66 0 1 0 C2.1578939 20.29530705 -4.53145624 39.23427872 -14 57 C-14.33 57 -14.66 57 -15 57 C-15.30109336 48.11774601 -15.30109336 48.11774601 -13 44 C-12.01 43.34 -11.02 42.68 -10 42 C-7.45596657 37.27070709 -6.72279117 32.26604995 -6 27 C-5.34 26.01 -4.68 25.02 -4 24 C-3.58256635 21.75354124 -3.58256635 21.75354124 -3.4375 19.375 C-3.09841828 15.09841828 -3.09841828 15.09841828 -2 14 C-1.79043117 12.21284356 -1.63188384 10.41956231 -1.5 8.625 C-1.26763656 5.47979491 -1.00124031 3.00372093 0 0 Z " fill="#7693C8" transform="translate(410,326)"/>
<path d="M0 0 C0 0.33 0 0.66 0 1 C-24.57498373 5.8660304 -50.17876009 6.27985029 -75 3 C-75 2.67 -75 2.34 -75 2 C-73.16562378 2.01571045 -73.16562378 2.01571045 -71.29418945 2.03173828 C-66.64773626 2.06862608 -62.0012952 2.09114376 -57.35473633 2.10986328 C-55.36415412 2.11976747 -53.37358582 2.13329443 -51.38305664 2.15087891 C-39.89073819 2.24967507 -28.58777796 2.01320373 -17.1599884 0.70510864 C-11.41518391 0.05652457 -5.78015588 -0.10912529 0 0 Z " fill="#738FC5" transform="translate(304,446)"/>
<path d="M0 0 C1.94158017 3.51624755 2.18311068 5.9715651 2 10 C0.68 10.33 -0.64 10.66 -2 11 C-1.67 11.33 -1.34 11.66 -1 12 C-0.67 12 -0.34 12 0 12 C0.20086443 15.71599191 0.1519437 16.77208445 -2 20 C-3.01559401 21.99212671 -4.01789629 23.9911515 -5 26 C-5.66 26 -6.32 26 -7 26 C-5.73628827 16.92768148 -3.03944933 8.59630517 0 0 Z " fill="#7692D1" transform="translate(102,83)"/>
<path d="M0 0 C0.99 0.33 1.98 0.66 3 1 C3 1.66 3 2.32 3 3 C11.06451858 7.14952858 17.91744774 8.4583718 27 8 C27 8.66 27 9.32 27 10 C24.62556577 10.22354724 22.25174905 10.429163 19.875 10.625 C18.87726563 10.72167969 18.87726563 10.72167969 17.859375 10.8203125 C12.222475 11.2624223 8.00595893 10.68922857 3.625 7 C2 5 2 5 2 3 C1.01 2.67 0.02 2.34 -1 2 C-0.67 1.34 -0.34 0.68 0 0 Z " fill="#7C9ACF" transform="translate(242,331)"/>
<path d="M0 0 C1.32 0.33 2.64 0.66 4 1 C4 1.66 4 2.32 4 3 C4.68449219 3.21398437 5.36898438 3.42796875 6.07421875 3.6484375 C9.88523628 5.40893425 12.67676755 7.87030973 15.8125 10.625 C16.7087207 11.3984375 16.7087207 11.3984375 17.62304688 12.1875 C19.08712409 13.45246272 20.54427155 14.72543834 22 16 C21.67 16.66 21.34 17.32 21 18 C20.01 18.33 19.02 18.66 18 19 C18 18.01 18 17.02 18 16 C15.56718806 12.56544197 11.77911384 11.49738473 8 10 C8 8.68 8 7.36 8 6 C7.01 6.33 6.02 6.66 5 7 C3.29115995 5.37660195 1.62553283 3.70680947 0 2 C0 1.34 0 0.68 0 0 Z " fill="#7893C9" transform="translate(353,185)"/>
<path d="M0 0 C1.63001953 0.01353516 1.63001953 0.01353516 3.29296875 0.02734375 C4.12441406 0.03894531 4.95585937 0.05054688 5.8125 0.0625 C6.1425 1.0525 6.4725 2.0425 6.8125 3.0625 C9.4525 3.0625 12.0925 3.0625 14.8125 3.0625 C14.8125 4.3825 14.8125 5.7025 14.8125 7.0625 C12.12631373 6.52526275 10.11714267 5.72163857 7.625 4.5 C1.00780179 1.60940378 -5.56621482 2.80844547 -12.1875 5.0625 C-12.5175 4.4025 -12.8475 3.7425 -13.1875 3.0625 C-11.8675 3.0625 -10.5475 3.0625 -9.1875 3.0625 C-9.1875 2.4025 -9.1875 1.7425 -9.1875 1.0625 C-5.90230525 -0.03256492 -3.45086585 -0.03710608 0 0 Z " fill="#7391CA" transform="translate(262.1875,270.9375)"/>
<path d="M0 0 C2.25414782 3.38122173 2.24544447 4.6064728 2.1875 8.5625 C2.18105469 9.53316406 2.17460938 10.50382813 2.16796875 11.50390625 C2 14 2 14 1 16 C0.34 16 -0.32 16 -1 16 C-1 23.59 -1 31.18 -1 39 C-3 37 -3 37 -3.24804688 35.11376953 C-3.15510577 27.63975581 -2.38161697 20.29329057 -1.5 12.875 C-1.35691406 11.63234375 -1.21382813 10.3896875 -1.06640625 9.109375 C-0.71597384 6.07229415 -0.36039867 3.0359115 0 0 Z " fill="#7C99CF" transform="translate(93,118)"/>
<path d="M0 0 C0.33 0 0.66 0 1 0 C1.36706108 9.19012194 0.70968037 17.19353881 -2 26 C-4.29982545 22.00834894 -3.93492352 19.50463153 -3 15 C-2.67 14.67 -2.34 14.34 -2 14 C-1.79043117 12.21284356 -1.63188384 10.41956231 -1.5 8.625 C-1.26763656 5.47979491 -1.00124031 3.00372093 0 0 Z " fill="#6A8DC7" transform="translate(410,326)"/>
<path d="M0 0 C0.99 0.33 1.98 0.66 3 1 C-1.46351289 6.22325977 -6.0744893 11.20922972 -11 16 C-11.33 15.01 -11.66 14.02 -12 13 C-11.34 13 -10.68 13 -10 13 C-9.95875 12.443125 -9.9175 11.88625 -9.875 11.3125 C-8.51022892 7.705605 -6.08919824 6.26961504 -3 4 C-2.34 4 -1.68 4 -1 4 C-0.67 2.68 -0.34 1.36 0 0 Z " fill="#89A4D0" transform="translate(381,399)"/>
<path d="M0 0 C0 0.66 0 1.32 0 2 C-7.05453001 3.20443195 -13.83437211 4.28100502 -21 4 C-14.55014562 0.47111416 -7.25553656 -0.31545811 0 0 Z " fill="#7A9ACD" transform="translate(276,168)"/>
<path d="M0 0 C0.33 0 0.66 0 1 0 C1.12117187 0.66386719 1.24234375 1.32773437 1.3671875 2.01171875 C2.23392939 6.5787818 3.22657715 10.69311595 5 15 C5 16.32 5 17.64 5 19 C3 19 3 19 1.38671875 17.484375 C-0.50510141 14.09508592 -0.32636671 11.01720447 -0.1875 7.25 C-0.17396484 6.55261719 -0.16042969 5.85523438 -0.14648438 5.13671875 C-0.1112945 3.42414459 -0.05749155 1.71197059 0 0 Z " fill="#718FC8" transform="translate(236,311)"/>
<path d="M0 0 C1.32 0 2.64 0 4 0 C2.61735163 2.86867231 1.07851447 5.56024032 -0.625 8.25 C-1.07101563 8.95640625 -1.51703125 9.6628125 -1.9765625 10.390625 C-2.48316406 11.18726563 -2.48316406 11.18726563 -3 12 C-3.66 11.67 -4.32 11.34 -5 11 C-5.625 8.9375 -5.625 8.9375 -6 7 C-5.195625 6.401875 -4.39125 5.80375 -3.5625 5.1875 C-0.77672016 3.19052724 -0.77672016 3.19052724 0 0 Z " fill="#769ACC" transform="translate(243,277)"/>
<path d="M0 0 C0.33 0 0.66 0 1 0 C1 1.65 1 3.3 1 5 C1.66 5 2.32 5 3 5 C3 5.99 3 6.98 3 8 C2.34 8 1.68 8 1 8 C1.01160156 8.62648438 1.02320313 9.25296875 1.03515625 9.8984375 C1.04417969 10.71570313 1.05320312 11.53296875 1.0625 12.375 C1.07410156 13.18710937 1.08570313 13.99921875 1.09765625 14.8359375 C1 17 1 17 0 19 C-0.66 19 -1.32 19 -2 19 C-1.45118943 12.64780958 -0.83488387 6.32126362 0 0 Z " fill="#7796CC" transform="translate(286,307)"/>
<path d="M0 0 C2.01003635 3.01505452 2.99171541 5.57496212 4.125 9 C4.47820312 10.051875 4.83140625 11.10375 5.1953125 12.1875 C6 15 6 15 6 18 C5.34 18 4.68 18 4 18 C3.13237686 15.75438718 2.2807897 13.50473745 1.4375 11.25 C1.19064453 10.61578125 0.94378906 9.9815625 0.68945312 9.328125 C-0.58197079 5.88990821 -1.46686355 3.47831118 0 0 Z " fill="#708FC7" transform="translate(401,243)"/>
<path d="M0 0 C-0.33 0.99 -0.66 1.98 -1 3 C-1.66 3 -2.32 3 -3 3 C-3 3.66 -3 4.32 -3 5 C-5.90548882 7.04169485 -7.40142046 8 -11 8 C-10.34 6.35 -9.68 4.7 -9 3 C-7.35 3 -5.7 3 -4 3 C-4 2.34 -4 1.68 -4 1 C-2 0 -2 0 0 0 Z " fill="#7490CC" transform="translate(365,417)"/>
<path d="M0 0 C1.32 0.33 2.64 0.66 4 1 C4.103125 1.556875 4.20625 2.11375 4.3125 2.6875 C4.92877923 5.14518187 4.92877923 5.14518187 6.625 7.5625 C7.07875 8.366875 7.5325 9.17125 8 10 C7.67 10.99 7.34 11.98 7 13 C5.82479354 11.40207898 4.66008753 9.79643092 3.5 8.1875 C2.8503125 7.29417969 2.200625 6.40085937 1.53125 5.48046875 C0 3 0 3 0 0 Z " fill="#7D99CD" transform="translate(111,379)"/>
<path d="M0 0 C-3.76613488 3.7762589 -7.72196555 3.5415786 -12.75 3.6875 C-13.54277344 3.72166016 -14.33554688 3.75582031 -15.15234375 3.79101562 C-17.10107504 3.87319104 -19.05051362 3.93828045 -21 4 C-14.65939616 -0.22706923 -7.41567962 -0.2354184 0 0 Z " fill="#7E98CE" transform="translate(162,42)"/>
<path d="M0 0 C2.63799428 2.63799428 2.44709714 4.26257561 2.75 7.9375 C2.84796875 8.99839844 2.9459375 10.05929687 3.046875 11.15234375 C3 14 3 14 1 17 C0.63917123 14.35491639 0.28604648 11.70920453 -0.0625 9.0625 C-0.16626953 8.30775391 -0.27003906 7.55300781 -0.37695312 6.77539062 C-0.62665638 4.85525872 -0.81790281 2.92771856 -1 1 C-0.67 0.67 -0.34 0.34 0 0 Z " fill="#7D98D0" transform="translate(285,289)"/>
<path d="M0 0 C0.66 0 1.32 0 2 0 C2.33 4.62 2.66 9.24 3 14 C2.01 13.67 1.02 13.34 0 13 C0 8.71 0 4.42 0 0 Z " fill="#7A95CE" transform="translate(409,275)"/>
<path d="M0 0 C0.33 0.66 0.66 1.32 1 2 C2.66128463 2.35919668 4.32900023 2.68911632 6 3 C8.3125 4.0625 8.3125 4.0625 10 5 C8.296875 6.1484375 8.296875 6.1484375 6 7 C3.640625 6.1015625 3.640625 6.1015625 1.25 4.625 C0.45078125 4.14289063 -0.3484375 3.66078125 -1.171875 3.1640625 C-1.77515625 2.77992188 -2.3784375 2.39578125 -3 2 C-2.01 1.34 -1.02 0.68 0 0 Z " fill="#7595CB" transform="translate(158,423)"/>
<path d="M0 0 C0.33 1.32 0.66 2.64 1 4 C0.01 4.33 -0.98 4.66 -2 5 C-2 5.66 -2 6.32 -2 7 C-2.66 7 -3.32 7 -4 7 C-4.33 8.32 -4.66 9.64 -5 11 C-5.99 11 -6.98 11 -8 11 C-6.63629701 8.00779732 -5.05091917 5.70973471 -2.875 3.25 C-2.33617188 2.63640625 -1.79734375 2.0228125 -1.2421875 1.390625 C-0.62730469 0.70226563 -0.62730469 0.70226563 0 0 Z " fill="#8EA5D1" transform="translate(119,58)"/>
<path d="M0 0 C2.31 0.66 4.62 1.32 7 2 C7 3.32 7 4.64 7 6 C8.32 6.33 9.64 6.66 11 7 C10.34 7.66 9.68 8.32 9 9 C7.49428343 7.88266271 5.99555708 6.75589965 4.5 5.625 C3.6646875 4.99851562 2.829375 4.37203125 1.96875 3.7265625 C1.3190625 3.15679687 0.669375 2.58703125 0 2 C0 1.34 0 0.68 0 0 Z " fill="#7C98CE" transform="translate(137,410)"/>
<path d="M0 0 C1.28132813 0.00902344 2.56265625 0.01804687 3.8828125 0.02734375 C4.87023437 0.03894531 5.85765625 0.05054688 6.875 0.0625 C6.875 0.3925 6.875 0.7225 6.875 1.0625 C-0.55 2.5475 -0.55 2.5475 -8.125 4.0625 C-8.455 3.0725 -8.785 2.0825 -9.125 1.0625 C-6.12186252 -0.43906874 -3.33432478 -0.03031204 0 0 Z " fill="#7B98CB" transform="translate(314.125,441.9375)"/>
<path d="M0 0 C0.99 0 1.98 0 3 0 C2.53199289 4.05606165 2.12046792 7.46588679 0 11 C-0.66 11 -1.32 11 -2 11 C-1.34 7.37 -0.68 3.74 0 0 Z " fill="#6A8CC9" transform="translate(97,98)"/>
<path d="M0 0 C2.46717524 2.2639961 4.10134139 4.59060244 5.75 7.5 C6.42289063 8.66015625 6.42289063 8.66015625 7.109375 9.84375 C8 12 8 12 7 15 C6.34 14.01 5.68 13.02 5 12 C4.57460937 11.37222656 4.14921875 10.74445313 3.7109375 10.09765625 C3.27007812 9.42605469 2.82921875 8.75445312 2.375 8.0625 C1.92898437 7.39347656 1.48296875 6.72445312 1.0234375 6.03515625 C0 4 0 4 0 0 Z " fill="#839BCA" transform="translate(219,68)"/>
<path d="M0 0 C0.66 0 1.32 0 2 0 C2.66 2.64 3.32 5.28 4 8 C4.33 8 4.66 8 5 8 C5 10.31 5 12.62 5 15 C0 5.38461538 0 5.38461538 0 0 Z " fill="#8DA4D5" transform="translate(98,350)"/>
<path d="M0 0 C0.99 0 1.98 0 3 0 C3 0.66 3 1.32 3 2 C5.64 2 8.28 2 11 2 C11 3.32 11 4.64 11 6 C7.08406554 5.21681311 3.63593365 3.60820142 0 2 C0 1.34 0 0.68 0 0 Z " fill="#7D9ACD" transform="translate(266,272)"/>
<path d="M0 0 C1.46067199 0.45082469 2.91848032 0.91093537 4.375 1.375 C5.18710938 1.63023438 5.99921875 1.88546875 6.8359375 2.1484375 C9 3 9 3 11 5 C9.56138706 4.91253716 8.12402492 4.80434652 6.6875 4.6875 C5.88699219 4.62949219 5.08648437 4.57148437 4.26171875 4.51171875 C1.63727666 3.91793306 0.69179328 3.04219706 -1 1 C-0.67 0.67 -0.34 0.34 0 0 Z " fill="#7595CA" transform="translate(187,45)"/>
<path d="M0 0 C1.1875 1.625 1.1875 1.625 2 4 C0.625 7.25 0.625 7.25 -1 10 C-1.33 10 -1.66 10 -2 10 C-2.1953125 3.9453125 -2.1953125 3.9453125 -2 2 C-1.34 1.34 -0.68 0.68 0 0 Z " fill="#7C99D1" transform="translate(397,373)"/>
<path d="M0 0 C1.32087692 2.17556199 2.07112439 3.43100487 1.75 6 C0.96713323 8.08764473 0.05252193 10.03529239 -1 12 C-1.66 10.02 -2.32 8.04 -3 6 C-2.34 5.67 -1.68 5.34 -1 5 C-0.34444881 2.47266765 -0.34444881 2.47266765 0 0 Z " fill="#7296D5" transform="translate(229,87)"/>
<path d="M0 0 C0.66 0.33 1.32 0.66 2 1 C1.67 2.32 1.34 3.64 1 5 C-1.31 4.67 -3.62 4.34 -6 4 C-4.03617993 2.49440461 -2.21736634 1.10868317 0 0 Z " fill="#799ED1" transform="translate(243,175)"/>
<path d="M0 0 C0.33 0.99 0.66 1.98 1 3 C-1.31 4.98 -3.62 6.96 -6 9 C-6 8.01 -6 7.02 -6 6 C-5.34 6 -4.68 6 -4 6 C-3.896875 5.38125 -3.79375 4.7625 -3.6875 4.125 C-3 2 -3 2 0 0 Z " fill="#7E98CC" transform="translate(375,406)"/>
<path d="M0 0 C1.32 0.33 2.64 0.66 4 1 C4 1.66 4 2.32 4 3 C6.475 3.99 6.475 3.99 9 5 C7.02 5.99 7.02 5.99 5 7 C3.29115995 5.37660195 1.62553283 3.70680947 0 2 C0 1.34 0 0.68 0 0 Z " fill="#849DCD" transform="translate(353,185)"/>
<path d="M0 0 C5.75 1.75 5.75 1.75 8 4 C5.03 4 2.06 4 -1 4 C-0.67 2.68 -0.34 1.36 0 0 Z " fill="#7599CD" transform="translate(338,177)"/>
<path d="M0 0 C0.66 0.66 1.32 1.32 2 2 C-2.01804691 2.84098656 -5.01803543 3.05404945 -9 2 C-5.54754176 -0.30163882 -4.05261287 -0.34490322 0 0 Z " fill="#7996CE" transform="translate(206,441)"/>
<path d="M0 0 C0.93423645 3.01031744 1.04449911 3.86650268 0 7 C-1.32 6.67 -2.64 6.34 -4 6 C-3.6875 4.125 -3.6875 4.125 -3 2 C-2.01 1.34 -1.02 0.68 0 0 Z " fill="#6686C4" transform="translate(400,368)"/>
<path d="M0 0 C1.98 1.65 3.96 3.3 6 5 C5.67 5.99 5.34 6.98 5 8 C4.01 7.67 3.02 7.34 2 7 C0.8125 3.4375 0.8125 3.4375 0 0 Z " fill="#829AD2" transform="translate(208,56)"/>
<path d="M0 0 C1.67542976 0.28604898 3.34385343 0.61781233 5 1 C5 1.66 5 2.32 5 3 C3.02 3.99 1.04 4.98 -1 6 C-1.042721 4.33388095 -1.04063832 2.66617115 -1 1 C-0.67 0.67 -0.34 0.34 0 0 Z " fill="#7291C9" transform="translate(348,425)"/>
<path d="M0 0 C1.65 1.65 3.3 3.3 5 5 C4.01 6.485 4.01 6.485 3 8 C2.34 7.67 1.68 7.34 1 7 C1 5.68 1 4.36 1 3 C0.34 3 -0.32 3 -1 3 C-0.67 2.01 -0.34 1.02 0 0 Z " fill="#7594C9" transform="translate(376,203)"/>
<path d="M0 0 C-1.32 1.65 -2.64 3.3 -4 5 C-4.33 4.34 -4.66 3.68 -5 3 C-7.01669827 1.86649466 -7.01669827 1.86649466 -9 1 C-6.04335481 -0.4783226 -3.25770263 -0.06032783 0 0 Z " fill="#718FCF" transform="translate(137,50)"/>
<path d="M0 0 C0.66 0 1.32 0 2 0 C1.67 2.31 1.34 4.62 1 7 C-1 6 -1 6 -1.75 4.0625 C-1.8325 3.381875 -1.915 2.70125 -2 2 C-1.34 1.34 -0.68 0.68 0 0 Z " fill="#688ACD" transform="translate(239,282)"/>
<path d="M0 0 C0.99 0.33 1.98 0.66 3 1 C3.33 2.65 3.66 4.3 4 6 C2.02 4.68 0.04 3.36 -2 2 C-1.34 1.34 -0.68 0.68 0 0 Z " fill="#779BCB" transform="translate(132,404)"/>
<path d="M0 0 C0.66 0 1.32 0 2 0 C2 0.99 2 1.98 2 3 C2.66 3 3.32 3 4 3 C3.67 4.32 3.34 5.64 3 7 C1.68 5.35 0.36 3.7 -1 2 C-0.67 1.34 -0.34 0.68 0 0 Z " fill="#81A1CD" transform="translate(126,398)"/>
<path d="M0 0 C-0.66 1.32 -1.32 2.64 -2 4 C-3.65 4 -5.3 4 -7 4 C-3.375 0 -3.375 0 0 0 Z " fill="#7D9BCB" transform="translate(277,335)"/>
<path d="M0 0 C0.33 0.66 0.66 1.32 1 2 C1.66 2.33 2.32 2.66 3 3 C2.01 3.99 1.02 4.98 0 6 C-0.99 5.67 -1.98 5.34 -3 5 C-2.01 3.35 -1.02 1.7 0 0 Z " fill="#82A0D6" transform="translate(281,327)"/>
<path d="M0 0 C1.65 1.65 3.3 3.3 5 5 C3.02 5.99 3.02 5.99 1 7 C0 2.25 0 2.25 0 0 Z " fill="#83A4D5" transform="translate(381,209)"/>
</svg>
